<?xml version="1.0" encoding="UTF-8" standalone="no"?>
<!DOCTYPE svg PUBLIC "-//W3C//DTD SVG 1.1//EN"
 "http://www.w3.org/Graphics/SVG/1.1/DTD/svg11.dtd">
<!-- Generated by graphviz version 2.34.0 (20130907.0228)
 -->
<!-- Title: %3 Pages: 1 -->
<svg width="2988pt" height="416pt"
 viewBox="0.00 0.00 2988.00 416.00" xmlns="http://www.w3.org/2000/svg" xmlns:xlink="http://www.w3.org/1999/xlink">
<g id="graph0" class="graph" transform="scale(1 1) rotate(0) translate(4 412)">
<title>%3</title>
<polygon fill="white" stroke="white" points="-4,4 -4,-412 2984,-412 2984,4 -4,4"/>
<!-- org_liveSense_framework_jasperreports -->
<g id="node1" class="node"><title>org_liveSense_framework_jasperreports</title>
<polygon fill="yellow" stroke="black" points="1122,-371 1122,-407 1332,-407 1332,-371 1122,-371"/>
<text text-anchor="middle" x="1227" y="-396.1" font-family="Arial" font-size="8.00">liveSense :: Framework :: Jasper reports</text>
<polyline fill="none" stroke="black" points="1122,-389 1332,-389 "/>
<text text-anchor="middle" x="1227" y="-378.1" font-family="Arial" font-size="8.00">org.liveSense.framework.jasperreports(2&#45;SNAPSHOT)</text>
</g>
<!-- org_springframework_core -->
<g id="node2" class="node"><title>org_springframework_core</title>
<polygon fill="green" stroke="black" points="348.5,-297 348.5,-333 517.5,-333 517.5,-297 348.5,-297"/>
<text text-anchor="middle" x="433" y="-322.1" font-family="Arial" font-size="8.00">Spring Core</text>
<polyline fill="none" stroke="black" points="348.5,-315 517.5,-315 "/>
<text text-anchor="middle" x="433" y="-304.1" font-family="Arial" font-size="8.00">org.springframework.core(3.1.4.RELEASE)</text>
</g>
<!-- org_liveSense_framework_jasperreports&#45;&gt;org_springframework_core -->
<g id="edge1" class="edge"><title>org_liveSense_framework_jasperreports&#45;&gt;org_springframework_core</title>
<path fill="none" stroke="yellow" d="M1121.8,-383.65C986.409,-377.207 743.814,-362.806 527.533,-334.128"/>
<polygon fill="yellow" stroke="yellow" points="527.955,-330.653 517.579,-332.796 527.027,-337.592 527.955,-330.653"/>
</g>
<!-- org_apache_servicemix_bundles_rhino -->
<g id="node3" class="node"><title>org_apache_servicemix_bundles_rhino</title>
<polygon fill="green" stroke="black" points="1831,-297 1831,-333 2027,-333 2027,-297 1831,-297"/>
<text text-anchor="middle" x="1929" y="-322.1" font-family="Arial" font-size="8.00">Apache ServiceMix :: Bundles :: js</text>
<polyline fill="none" stroke="black" points="1831,-315 2027,-315 "/>
<text text-anchor="middle" x="1929" y="-304.1" font-family="Arial" font-size="8.00">org.apache.servicemix.bundles.rhino(1.0.0.7R2_3)</text>
</g>
<!-- org_liveSense_framework_jasperreports&#45;&gt;org_apache_servicemix_bundles_rhino -->
<g id="edge2" class="edge"><title>org_liveSense_framework_jasperreports&#45;&gt;org_apache_servicemix_bundles_rhino</title>
<path fill="none" stroke="yellow" d="M1332.14,-380.82C1448.86,-372.307 1643.01,-356.541 1820.69,-333.981"/>
<polygon fill="yellow" stroke="yellow" points="1821.27,-337.435 1830.75,-332.695 1820.38,-330.492 1821.27,-337.435"/>
</g>
<!-- org_apache_geronimo_specs_geronimo_servlet_3_0_spec -->
<g id="node4" class="node"><title>org_apache_geronimo_specs_geronimo_servlet_3_0_spec</title>
<polygon fill="green" stroke="black" points="1217,-297 1217,-333 1447,-333 1447,-297 1217,-297"/>
<text text-anchor="middle" x="1332" y="-322.1" font-family="Arial" font-size="8.00">Servlet 3.0</text>
<polyline fill="none" stroke="black" points="1217,-315 1447,-315 "/>
<text text-anchor="middle" x="1332" y="-304.1" font-family="Arial" font-size="8.00">org.apache.geronimo.specs.geronimo&#45;servlet_3.0_spec(1.0)</text>
</g>
<!-- org_liveSense_framework_jasperreports&#45;&gt;org_apache_geronimo_specs_geronimo_servlet_3_0_spec -->
<g id="edge3" class="edge"><title>org_liveSense_framework_jasperreports&#45;&gt;org_apache_geronimo_specs_geronimo_servlet_3_0_spec</title>
<path fill="none" stroke="yellow" d="M1251.88,-370.937C1265.77,-361.412 1283.27,-349.415 1298.37,-339.063"/>
<polygon fill="yellow" stroke="yellow" points="1300.66,-341.732 1306.93,-333.19 1296.7,-335.959 1300.66,-341.732"/>
</g>
<!-- org_apache_servicemix_bundles_xalan -->
<g id="node5" class="node"><title>org_apache_servicemix_bundles_xalan</title>
<polygon fill="green" stroke="black" points="2045,-297 2045,-333 2223,-333 2223,-297 2045,-297"/>
<text text-anchor="middle" x="2134" y="-322.1" font-family="Arial" font-size="8.00">Apache ServiceMix :: Bundles :: xalan</text>
<polyline fill="none" stroke="black" points="2045,-315 2223,-315 "/>
<text text-anchor="middle" x="2134" y="-304.1" font-family="Arial" font-size="8.00">org.apache.servicemix.bundles.xalan(2.7.1.6)</text>
</g>
<!-- org_liveSense_framework_jasperreports&#45;&gt;org_apache_servicemix_bundles_xalan -->
<g id="edge4" class="edge"><title>org_liveSense_framework_jasperreports&#45;&gt;org_apache_servicemix_bundles_xalan</title>
<path fill="none" stroke="yellow" d="M1332.09,-384.844C1484.8,-379.396 1777.04,-365.728 2034.94,-334.051"/>
<polygon fill="yellow" stroke="yellow" points="2035.38,-337.524 2044.87,-332.82 2034.51,-330.577 2035.38,-337.524"/>
</g>
<!-- org_apache_commons_beanutils -->
<g id="node6" class="node"><title>org_apache_commons_beanutils</title>
<polygon fill="green" stroke="black" points="1047.5,-297 1047.5,-333 1198.5,-333 1198.5,-297 1047.5,-297"/>
<text text-anchor="middle" x="1123" y="-322.1" font-family="Arial" font-size="8.00">Commons BeanUtils</text>
<polyline fill="none" stroke="black" points="1047.5,-315 1198.5,-315 "/>
<text text-anchor="middle" x="1123" y="-304.1" font-family="Arial" font-size="8.00">org.apache.commons.beanutils(1.8.3)</text>
</g>
<!-- org_liveSense_framework_jasperreports&#45;&gt;org_apache_commons_beanutils -->
<g id="edge5" class="edge"><title>org_liveSense_framework_jasperreports&#45;&gt;org_apache_commons_beanutils</title>
<path fill="none" stroke="yellow" d="M1202.35,-370.937C1188.6,-361.412 1171.27,-349.415 1156.31,-339.063"/>
<polygon fill="yellow" stroke="yellow" points="1158.04,-336.004 1147.83,-333.19 1154.06,-341.76 1158.04,-336.004"/>
</g>
<!-- org_apache_commons_digester -->
<g id="node7" class="node"><title>org_apache_commons_digester</title>
<polygon fill="green" stroke="black" points="707.5,-297 707.5,-333 848.5,-333 848.5,-297 707.5,-297"/>
<text text-anchor="middle" x="778" y="-322.1" font-family="Arial" font-size="8.00">Commons Digester</text>
<polyline fill="none" stroke="black" points="707.5,-315 848.5,-315 "/>
<text text-anchor="middle" x="778" y="-304.1" font-family="Arial" font-size="8.00">org.apache.commons.digester(2.1)</text>
</g>
<!-- org_liveSense_framework_jasperreports&#45;&gt;org_apache_commons_digester -->
<g id="edge6" class="edge"><title>org_liveSense_framework_jasperreports&#45;&gt;org_apache_commons_digester</title>
<path fill="none" stroke="yellow" d="M1121.77,-374.896C1050.06,-365.436 952.78,-351.568 858.567,-334.226"/>
<polygon fill="yellow" stroke="yellow" points="859.049,-330.756 848.578,-332.372 857.771,-337.638 859.049,-330.756"/>
</g>
<!-- groovy_all -->
<g id="node8" class="node"><title>groovy_all</title>
<polygon fill="green" stroke="black" points="615,-297 615,-333 689,-333 689,-297 615,-297"/>
<text text-anchor="middle" x="652" y="-322.1" font-family="Arial" font-size="8.00">Groovy Runtime</text>
<polyline fill="none" stroke="black" points="615,-315 689,-315 "/>
<text text-anchor="middle" x="652" y="-304.1" font-family="Arial" font-size="8.00">groovy&#45;all(1.8.2)</text>
</g>
<!-- org_liveSense_framework_jasperreports&#45;&gt;groovy_all -->
<g id="edge7" class="edge"><title>org_liveSense_framework_jasperreports&#45;&gt;groovy_all</title>
<path fill="none" stroke="yellow" d="M1121.95,-385.638C1016.5,-381.371 849.706,-369.448 699.033,-333.882"/>
<polygon fill="yellow" stroke="yellow" points="699.674,-330.436 689.133,-331.505 698.04,-337.243 699.674,-330.436"/>
</g>
<!-- bcmail -->
<g id="node9" class="node"><title>bcmail</title>
<polygon fill="green" stroke="black" points="269.5,-297 269.5,-333 330.5,-333 330.5,-297 269.5,-297"/>
<text text-anchor="middle" x="300" y="-322.1" font-family="Arial" font-size="8.00">bcmail</text>
<polyline fill="none" stroke="black" points="269.5,-315 330.5,-315 "/>
<text text-anchor="middle" x="300" y="-304.1" font-family="Arial" font-size="8.00">bcmail(1.46)</text>
</g>
<!-- org_liveSense_framework_jasperreports&#45;&gt;bcmail -->
<g id="edge8" class="edge"><title>org_liveSense_framework_jasperreports&#45;&gt;bcmail</title>
<path fill="none" stroke="yellow" d="M1121.93,-386.474C924.038,-382.816 502.145,-371.086 340.505,-333.799"/>
<polygon fill="yellow" stroke="yellow" points="341.242,-330.376 330.699,-331.423 339.594,-337.18 341.242,-330.376"/>
</g>
<!-- bctsp -->
<g id="node10" class="node"><title>bctsp</title>
<polygon fill="green" stroke="black" points="194.5,-297 194.5,-333 251.5,-333 251.5,-297 194.5,-297"/>
<text text-anchor="middle" x="223" y="-322.1" font-family="Arial" font-size="8.00">bctsp</text>
<polyline fill="none" stroke="black" points="194.5,-315 251.5,-315 "/>
<text text-anchor="middle" x="223" y="-304.1" font-family="Arial" font-size="8.00">bctsp(1.46)</text>
</g>
<!-- org_liveSense_framework_jasperreports&#45;&gt;bctsp -->
<g id="edge9" class="edge"><title>org_liveSense_framework_jasperreports&#45;&gt;bctsp</title>
<path fill="none" stroke="yellow" d="M1121.72,-387.352C909.91,-385.21 438.126,-375.987 261.371,-333.717"/>
<polygon fill="yellow" stroke="yellow" points="262.217,-330.321 251.666,-331.284 260.515,-337.111 262.217,-330.321"/>
</g>
<!-- org_apache_servicemix_bundles_antlr -->
<g id="node11" class="node"><title>org_apache_servicemix_bundles_antlr</title>
<polygon fill="green" stroke="black" points="2241,-297 2241,-333 2415,-333 2415,-297 2241,-297"/>
<text text-anchor="middle" x="2328" y="-322.1" font-family="Arial" font-size="8.00">Apache ServiceMix :: Bundles :: antlr</text>
<polyline fill="none" stroke="black" points="2241,-315 2415,-315 "/>
<text text-anchor="middle" x="2328" y="-304.1" font-family="Arial" font-size="8.00">org.apache.servicemix.bundles.antlr(2.7.7.4)</text>
</g>
<!-- org_liveSense_framework_jasperreports&#45;&gt;org_apache_servicemix_bundles_antlr -->
<g id="edge10" class="edge"><title>org_liveSense_framework_jasperreports&#45;&gt;org_apache_servicemix_bundles_antlr</title>
<path fill="none" stroke="yellow" d="M1332.29,-386.896C1513.81,-383.988 1897.44,-373.438 2230.62,-334.071"/>
<polygon fill="yellow" stroke="yellow" points="2231.44,-337.497 2240.96,-332.838 2230.61,-330.547 2231.44,-337.497"/>
</g>
<!-- bcprov -->
<g id="node12" class="node"><title>bcprov</title>
<polygon fill="green" stroke="black" points="535.5,-297 535.5,-333 596.5,-333 596.5,-297 535.5,-297"/>
<text text-anchor="middle" x="566" y="-322.1" font-family="Arial" font-size="8.00">bcprov</text>
<polyline fill="none" stroke="black" points="535.5,-315 596.5,-315 "/>
<text text-anchor="middle" x="566" y="-304.1" font-family="Arial" font-size="8.00">bcprov(1.46)</text>
</g>
<!-- org_liveSense_framework_jasperreports&#45;&gt;bcprov -->
<g id="edge11" class="edge"><title>org_liveSense_framework_jasperreports&#45;&gt;bcprov</title>
<path fill="none" stroke="yellow" d="M1121.79,-383.119C975.414,-375.623 716.834,-359.64 606.524,-333.494"/>
<polygon fill="yellow" stroke="yellow" points="607.186,-330.052 596.635,-331.016 605.484,-336.842 607.186,-330.052"/>
</g>
<!-- jackson_mapper_asl -->
<g id="node13" class="node"><title>jackson_mapper_asl</title>
<polygon fill="green" stroke="black" points="2433.5,-297 2433.5,-333 2600.5,-333 2600.5,-297 2433.5,-297"/>
<text text-anchor="middle" x="2517" y="-322.1" font-family="Arial" font-size="8.00">Data mapper for Jackson JSON processor</text>
<polyline fill="none" stroke="black" points="2433.5,-315 2600.5,-315 "/>
<text text-anchor="middle" x="2517" y="-304.1" font-family="Arial" font-size="8.00">jackson&#45;mapper&#45;asl(1.9.10)</text>
</g>
<!-- org_liveSense_framework_jasperreports&#45;&gt;jackson_mapper_asl -->
<g id="edge12" class="edge"><title>org_liveSense_framework_jasperreports&#45;&gt;jackson_mapper_asl</title>
<path fill="none" stroke="yellow" d="M1332.3,-388.403C1539.55,-388.069 2014.99,-381.729 2423.5,-333.943"/>
<polygon fill="yellow" stroke="yellow" points="2423.92,-337.418 2433.44,-332.77 2423.1,-330.466 2423.92,-337.418"/>
</g>
<!-- jackson_core_asl -->
<g id="node14" class="node"><title>jackson_core_asl</title>
<polygon fill="green" stroke="black" points="2618.5,-297 2618.5,-333 2725.5,-333 2725.5,-297 2618.5,-297"/>
<text text-anchor="middle" x="2672" y="-322.1" font-family="Arial" font-size="8.00">Jackson JSON processor</text>
<polyline fill="none" stroke="black" points="2618.5,-315 2725.5,-315 "/>
<text text-anchor="middle" x="2672" y="-304.1" font-family="Arial" font-size="8.00">jackson&#45;core&#45;asl(1.9.10)</text>
</g>
<!-- org_liveSense_framework_jasperreports&#45;&gt;jackson_core_asl -->
<g id="edge13" class="edge"><title>org_liveSense_framework_jasperreports&#45;&gt;jackson_core_asl</title>
<path fill="none" stroke="yellow" d="M1332.04,-387.143C1607.03,-384.388 2344.42,-373.572 2608.29,-333.824"/>
<polygon fill="yellow" stroke="yellow" points="2608.89,-337.273 2618.23,-332.277 2607.82,-330.356 2608.89,-337.273"/>
</g>
<!-- org_ops4j_pax_logging_pax_logging_api -->
<g id="node15" class="node"><title>org_ops4j_pax_logging_pax_logging_api</title>
<polygon fill="green" stroke="black" points="1639.5,-297 1639.5,-333 1812.5,-333 1812.5,-297 1639.5,-297"/>
<text text-anchor="middle" x="1726" y="-322.1" font-family="Arial" font-size="8.00">OPS4J Pax Logging &#45; API</text>
<polyline fill="none" stroke="black" points="1639.5,-315 1812.5,-315 "/>
<text text-anchor="middle" x="1726" y="-304.1" font-family="Arial" font-size="8.00">org.ops4j.pax.logging.pax&#45;logging&#45;api(1.7.0)</text>
</g>
<!-- org_liveSense_framework_jasperreports&#45;&gt;org_ops4j_pax_logging_pax_logging_api -->
<g id="edge14" class="edge"><title>org_liveSense_framework_jasperreports&#45;&gt;org_ops4j_pax_logging_pax_logging_api</title>
<path fill="none" stroke="yellow" d="M1332.02,-375.451C1411.01,-365.655 1522.14,-351.118 1629.4,-334.053"/>
<polygon fill="yellow" stroke="yellow" points="1630.11,-337.483 1639.43,-332.447 1629,-330.571 1630.11,-337.483"/>
</g>
<!-- org_ops4j_pax_web_pax_web_jsp -->
<g id="node16" class="node"><title>org_ops4j_pax_web_pax_web_jsp</title>
<polygon fill="green" stroke="black" points="866.5,-297 866.5,-333 1029.5,-333 1029.5,-297 866.5,-297"/>
<text text-anchor="middle" x="948" y="-322.1" font-family="Arial" font-size="8.00">OPS4J Pax Web &#45; Jsp Support</text>
<polyline fill="none" stroke="black" points="866.5,-315 1029.5,-315 "/>
<text text-anchor="middle" x="948" y="-304.1" font-family="Arial" font-size="8.00">org.ops4j.pax.web.pax&#45;web&#45;jsp(3.0.0.M3)</text>
</g>
<!-- org_liveSense_framework_jasperreports&#45;&gt;org_ops4j_pax_web_pax_web_jsp -->
<g id="edge15" class="edge"><title>org_liveSense_framework_jasperreports&#45;&gt;org_ops4j_pax_web_pax_web_jsp</title>
<path fill="none" stroke="yellow" d="M1160.88,-370.937C1119.77,-360.328 1066.77,-346.651 1023.94,-335.598"/>
<polygon fill="yellow" stroke="yellow" points="1024.68,-332.175 1014.13,-333.065 1022.94,-338.953 1024.68,-332.175"/>
</g>
<!-- org_apache_commons_collections -->
<g id="node17" class="node"><title>org_apache_commons_collections</title>
<polygon fill="green" stroke="black" points="1465,-297 1465,-333 1621,-333 1621,-297 1465,-297"/>
<text text-anchor="middle" x="1543" y="-322.1" font-family="Arial" font-size="8.00">Commons Collections</text>
<polyline fill="none" stroke="black" points="1465,-315 1621,-315 "/>
<text text-anchor="middle" x="1543" y="-304.1" font-family="Arial" font-size="8.00">org.apache.commons.collections(3.2.1)</text>
</g>
<!-- org_liveSense_framework_jasperreports&#45;&gt;org_apache_commons_collections -->
<g id="edge16" class="edge"><title>org_liveSense_framework_jasperreports&#45;&gt;org_apache_commons_collections</title>
<path fill="none" stroke="yellow" d="M1301.89,-370.937C1348.93,-360.219 1409.71,-346.37 1458.48,-335.258"/>
<polygon fill="yellow" stroke="yellow" points="1459.4,-338.637 1468.38,-333.003 1457.85,-331.812 1459.4,-338.637"/>
</g>
<!-- org_springframework_beans -->
<g id="node18" class="node"><title>org_springframework_beans</title>
<polygon fill="green" stroke="black" points="0,-297 0,-333 176,-333 176,-297 0,-297"/>
<text text-anchor="middle" x="88" y="-322.1" font-family="Arial" font-size="8.00">Spring Beans</text>
<polyline fill="none" stroke="black" points="0,-315 176,-315 "/>
<text text-anchor="middle" x="88" y="-304.1" font-family="Arial" font-size="8.00">org.springframework.beans(3.1.4.RELEASE)</text>
</g>
<!-- org_liveSense_framework_jasperreports&#45;&gt;org_springframework_beans -->
<g id="edge17" class="edge"><title>org_liveSense_framework_jasperreports&#45;&gt;org_springframework_beans</title>
<path fill="none" stroke="yellow" d="M1121.98,-387.122C935.399,-384.557 533.863,-374.506 186.223,-334.054"/>
<polygon fill="yellow" stroke="yellow" points="186.553,-330.569 176.213,-332.879 185.736,-337.521 186.553,-330.569"/>
</g>
<!-- org_apache_servicemix_specs_java_persistence_api_1_1_1 -->
<g id="node19" class="node"><title>org_apache_servicemix_specs_java_persistence_api_1_1_1</title>
<polygon fill="green" stroke="black" points="2743.5,-297 2743.5,-333 2980.5,-333 2980.5,-297 2743.5,-297"/>
<text text-anchor="middle" x="2862" y="-322.1" font-family="Arial" font-size="8.00">Apache ServiceMix :: Specs :: Java Persistence API 1.4</text>
<polyline fill="none" stroke="black" points="2743.5,-315 2980.5,-315 "/>
<text text-anchor="middle" x="2862" y="-304.1" font-family="Arial" font-size="8.00">org.apache.servicemix.specs.java&#45;persistence&#45;api&#45;1.1.1(2.2.0)</text>
</g>
<!-- org_liveSense_framework_jasperreports&#45;&gt;org_apache_servicemix_specs_java_persistence_api_1_1_1 -->
<g id="edge18" class="edge"><title>org_liveSense_framework_jasperreports&#45;&gt;org_apache_servicemix_specs_java_persistence_api_1_1_1</title>
<path fill="none" stroke="yellow" d="M1332.29,-387.984C1578.17,-387.125 2209.16,-380.181 2734,-334 2734.11,-333.99 2734.22,-333.981 2734.32,-333.971"/>
<polygon fill="yellow" stroke="yellow" points="2734.9,-337.432 2744.53,-333.003 2734.24,-330.464 2734.9,-337.432"/>
</g>
<!-- org_springframework_core&#45;&gt;org_ops4j_pax_logging_pax_logging_api -->
<g id="edge19" class="edge"><title>org_springframework_core&#45;&gt;org_ops4j_pax_logging_pax_logging_api</title>
<path fill="none" stroke="green" d="M472.811,-333.092C491.309,-340.539 513.85,-348.282 535,-352 653.845,-372.889 1502.06,-372.343 1621,-352 1639.16,-348.895 1658.34,-342.974 1675.28,-336.765"/>
<polygon fill="green" stroke="green" points="1676.86,-339.91 1684.97,-333.094 1674.38,-333.365 1676.86,-339.91"/>
</g>
<!-- org_springframework_asm -->
<g id="node20" class="node"><title>org_springframework_asm</title>
<polygon fill="#3182bd" stroke="black" points="348.5,-223 348.5,-259 517.5,-259 517.5,-223 348.5,-223"/>
<text text-anchor="middle" x="433" y="-248.1" font-family="Arial" font-size="8.00">Spring ASM</text>
<polyline fill="none" stroke="black" points="348.5,-241 517.5,-241 "/>
<text text-anchor="middle" x="433" y="-230.1" font-family="Arial" font-size="8.00">org.springframework.asm(3.1.4.RELEASE)</text>
</g>
<!-- org_springframework_core&#45;&gt;org_springframework_asm -->
<g id="edge20" class="edge"><title>org_springframework_core&#45;&gt;org_springframework_asm</title>
<path fill="none" stroke="green" d="M433,-296.937C433,-288.807 433,-278.876 433,-269.705"/>
<polygon fill="green" stroke="green" points="436.5,-269.441 433,-259.441 429.5,-269.441 436.5,-269.441"/>
</g>
<!-- org_apache_servicemix_bundles_xmlbeans -->
<g id="node21" class="node"><title>org_apache_servicemix_bundles_xmlbeans</title>
<polygon fill="#3182bd" stroke="black" points="1833.5,-223 1833.5,-259 2026.5,-259 2026.5,-223 1833.5,-223"/>
<text text-anchor="middle" x="1930" y="-248.1" font-family="Arial" font-size="8.00">Apache ServiceMix :: Bundles :: xmlbeans</text>
<polyline fill="none" stroke="black" points="1833.5,-241 2026.5,-241 "/>
<text text-anchor="middle" x="1930" y="-230.1" font-family="Arial" font-size="8.00">org.apache.servicemix.bundles.xmlbeans(2.6.0.2)</text>
</g>
<!-- org_apache_servicemix_bundles_rhino&#45;&gt;org_apache_servicemix_bundles_xmlbeans -->
<g id="edge21" class="edge"><title>org_apache_servicemix_bundles_rhino&#45;&gt;org_apache_servicemix_bundles_xmlbeans</title>
<path fill="none" stroke="green" d="M1929.24,-296.937C1929.35,-288.807 1929.49,-278.876 1929.62,-269.705"/>
<polygon fill="green" stroke="green" points="1933.12,-269.488 1929.76,-259.441 1926.12,-269.391 1933.12,-269.488"/>
</g>
<!-- org_apache_servicemix_bundles_xerces -->
<g id="node22" class="node"><title>org_apache_servicemix_bundles_xerces</title>
<polygon fill="#3182bd" stroke="black" points="2238,-223 2238,-259 2420,-259 2420,-223 2238,-223"/>
<text text-anchor="middle" x="2329" y="-248.1" font-family="Arial" font-size="8.00">Apache ServiceMix :: Bundles :: xercesImpl</text>
<polyline fill="none" stroke="black" points="2238,-241 2420,-241 "/>
<text text-anchor="middle" x="2329" y="-230.1" font-family="Arial" font-size="8.00">org.apache.servicemix.bundles.xerces(2.9.1.5)</text>
</g>
<!-- org_apache_servicemix_bundles_xalan&#45;&gt;org_apache_servicemix_bundles_xerces -->
<g id="edge22" class="edge"><title>org_apache_servicemix_bundles_xalan&#45;&gt;org_apache_servicemix_bundles_xerces</title>
<path fill="none" stroke="green" d="M2180.21,-296.937C2208.04,-286.663 2243.66,-273.511 2273.07,-262.652"/>
<polygon fill="green" stroke="green" points="2274.61,-265.812 2282.78,-259.065 2272.19,-259.246 2274.61,-265.812"/>
</g>
<!-- org_apache_servicemix_bundles_bcel -->
<g id="node23" class="node"><title>org_apache_servicemix_bundles_bcel</title>
<polygon fill="#3182bd" stroke="black" points="2046.5,-223 2046.5,-259 2219.5,-259 2219.5,-223 2046.5,-223"/>
<text text-anchor="middle" x="2133" y="-248.1" font-family="Arial" font-size="8.00">Apache ServiceMix :: Bundles :: bcel</text>
<polyline fill="none" stroke="black" points="2046.5,-241 2219.5,-241 "/>
<text text-anchor="middle" x="2133" y="-230.1" font-family="Arial" font-size="8.00">org.apache.servicemix.bundles.bcel(5.2.0.4)</text>
</g>
<!-- org_apache_servicemix_bundles_xalan&#45;&gt;org_apache_servicemix_bundles_bcel -->
<g id="edge23" class="edge"><title>org_apache_servicemix_bundles_xalan&#45;&gt;org_apache_servicemix_bundles_bcel</title>
<path fill="none" stroke="green" d="M2133.76,-296.937C2133.65,-288.807 2133.51,-278.876 2133.38,-269.705"/>
<polygon fill="green" stroke="green" points="2136.88,-269.391 2133.24,-259.441 2129.88,-269.488 2136.88,-269.391"/>
</g>
<!-- org_apache_commons_beanutils&#45;&gt;org_ops4j_pax_logging_pax_logging_api -->
<g id="edge24" class="edge"><title>org_apache_commons_beanutils&#45;&gt;org_ops4j_pax_logging_pax_logging_api</title>
<path fill="none" stroke="green" d="M1159.55,-333.083C1176.57,-340.528 1197.36,-348.273 1217,-352 1305.2,-368.735 1532.51,-367.135 1621,-352 1639.16,-348.895 1658.34,-342.974 1675.28,-336.765"/>
<polygon fill="green" stroke="green" points="1676.86,-339.91 1684.97,-333.094 1674.38,-333.365 1676.86,-339.91"/>
</g>
<!-- org_apache_commons_beanutils&#45;&gt;org_apache_commons_collections -->
<g id="edge25" class="edge"><title>org_apache_commons_beanutils&#45;&gt;org_apache_commons_collections</title>
<path fill="none" stroke="green" d="M1159.55,-333.083C1176.57,-340.528 1197.36,-348.273 1217,-352 1317.43,-371.054 1346.5,-370.696 1447,-352 1463.58,-348.916 1480.98,-343.075 1496.35,-336.929"/>
<polygon fill="green" stroke="green" points="1497.73,-340.146 1505.63,-333.085 1495.06,-333.678 1497.73,-340.146"/>
</g>
<!-- org_apache_commons_digester&#45;&gt;org_apache_commons_beanutils -->
<g id="edge27" class="edge"><title>org_apache_commons_digester&#45;&gt;org_apache_commons_beanutils</title>
<path fill="none" stroke="green" d="M812.095,-333.075C828.003,-340.519 847.479,-348.265 866,-352 937.015,-366.322 957.825,-365.504 1029,-352 1045.11,-348.943 1062,-343.182 1076.94,-337.101"/>
<polygon fill="green" stroke="green" points="1078.6,-340.198 1086.45,-333.083 1075.88,-333.75 1078.6,-340.198"/>
</g>
<!-- org_apache_commons_digester&#45;&gt;org_ops4j_pax_logging_pax_logging_api -->
<g id="edge26" class="edge"><title>org_apache_commons_digester&#45;&gt;org_ops4j_pax_logging_pax_logging_api</title>
<path fill="none" stroke="green" d="M812.095,-333.075C828.003,-340.519 847.479,-348.265 866,-352 948.233,-368.585 1538.31,-366.143 1621,-352 1639.16,-348.895 1658.34,-342.974 1675.28,-336.765"/>
<polygon fill="green" stroke="green" points="1676.86,-339.91 1684.97,-333.094 1674.38,-333.365 1676.86,-339.91"/>
</g>
<!-- groovy_all&#45;&gt;org_apache_geronimo_specs_geronimo_servlet_3_0_spec -->
<g id="edge29" class="edge"><title>groovy_all&#45;&gt;org_apache_geronimo_specs_geronimo_servlet_3_0_spec</title>
<path fill="none" stroke="green" d="M672.669,-333.185C682.388,-340.552 694.562,-348.206 707,-352 811.363,-383.837 1089.88,-366.653 1198,-352 1221.85,-348.767 1247.46,-342.437 1269.83,-335.914"/>
<polygon fill="green" stroke="green" points="1270.96,-339.231 1279.54,-333.014 1268.95,-332.524 1270.96,-339.231"/>
</g>
<!-- groovy_all&#45;&gt;org_ops4j_pax_web_pax_web_jsp -->
<g id="edge28" class="edge"><title>groovy_all&#45;&gt;org_ops4j_pax_web_pax_web_jsp</title>
<path fill="none" stroke="green" d="M672.669,-333.185C682.388,-340.552 694.562,-348.206 707,-352 766.94,-370.285 786.315,-363.046 848,-352 865.202,-348.92 883.316,-343.079 899.331,-336.934"/>
<polygon fill="green" stroke="green" points="901.003,-340.035 909.003,-333.09 898.418,-333.53 901.003,-340.035"/>
</g>
<!-- org_apache_servicemix_bundles_junit -->
<g id="node24" class="node"><title>org_apache_servicemix_bundles_junit</title>
<polygon fill="#3182bd" stroke="black" points="535.5,-223 535.5,-259 708.5,-259 708.5,-223 535.5,-223"/>
<text text-anchor="middle" x="622" y="-248.1" font-family="Arial" font-size="8.00">Apache ServiceMix :: Bundles :: junit</text>
<polyline fill="none" stroke="black" points="535.5,-241 708.5,-241 "/>
<text text-anchor="middle" x="622" y="-230.1" font-family="Arial" font-size="8.00">org.apache.servicemix.bundles.junit(3.8.2.4)</text>
</g>
<!-- groovy_all&#45;&gt;org_apache_servicemix_bundles_junit -->
<g id="edge30" class="edge"><title>groovy_all&#45;&gt;org_apache_servicemix_bundles_junit</title>
<path fill="none" stroke="green" d="M644.89,-296.937C641.393,-288.542 637.094,-278.227 633.171,-268.81"/>
<polygon fill="green" stroke="green" points="636.344,-267.325 629.267,-259.441 629.882,-270.018 636.344,-267.325"/>
</g>
<!-- jline -->
<g id="node25" class="node"><title>jline</title>
<polygon fill="#3182bd" stroke="black" points="727,-223 727,-259 781,-259 781,-223 727,-223"/>
<text text-anchor="middle" x="754" y="-248.1" font-family="Arial" font-size="8.00">JLine</text>
<polyline fill="none" stroke="black" points="727,-241 781,-241 "/>
<text text-anchor="middle" x="754" y="-230.1" font-family="Arial" font-size="8.00">jline(2.9.0)</text>
</g>
<!-- groovy_all&#45;&gt;jline -->
<g id="edge31" class="edge"><title>groovy_all&#45;&gt;jline</title>
<path fill="none" stroke="green" d="M676.173,-296.937C689.666,-287.412 706.662,-275.415 721.327,-265.063"/>
<polygon fill="green" stroke="green" points="723.496,-267.816 729.647,-259.19 719.459,-262.098 723.496,-267.816"/>
</g>
<!-- bcmail&#45;&gt;bcprov -->
<g id="edge33" class="edge"><title>bcmail&#45;&gt;bcprov</title>
<path fill="none" stroke="green" d="M317.888,-333.343C326.263,-340.643 336.845,-348.2 348,-352 383.549,-364.111 481.391,-363.934 517,-352 524.959,-349.332 532.659,-344.805 539.505,-339.814"/>
<polygon fill="green" stroke="green" points="542.005,-342.299 547.675,-333.349 537.661,-336.809 542.005,-342.299"/>
</g>
<!-- javax_mail -->
<g id="node26" class="node"><title>javax_mail</title>
<polygon fill="#3182bd" stroke="black" points="233.5,-223 233.5,-259 330.5,-259 330.5,-223 233.5,-223"/>
<text text-anchor="middle" x="282" y="-248.1" font-family="Arial" font-size="8.00">JavaMail API (compat)</text>
<polyline fill="none" stroke="black" points="233.5,-241 330.5,-241 "/>
<text text-anchor="middle" x="282" y="-230.1" font-family="Arial" font-size="8.00">javax.mail(1.4.4)</text>
</g>
<!-- bcmail&#45;&gt;javax_mail -->
<g id="edge32" class="edge"><title>bcmail&#45;&gt;javax_mail</title>
<path fill="none" stroke="green" d="M295.734,-296.937C293.68,-288.719 291.165,-278.66 288.851,-269.406"/>
<polygon fill="green" stroke="green" points="292.181,-268.293 286.36,-259.441 285.39,-269.991 292.181,-268.293"/>
</g>
<!-- bctsp&#45;&gt;bcmail -->
<g id="edge35" class="edge"><title>bctsp&#45;&gt;bcmail</title>
<path fill="none" stroke="green" d="M251.574,-315C254.167,-315 256.76,-315 259.354,-315"/>
<polygon fill="green" stroke="green" points="259.356,-318.5 269.356,-315 259.356,-311.5 259.356,-318.5"/>
</g>
<!-- bctsp&#45;&gt;bcprov -->
<g id="edge34" class="edge"><title>bctsp&#45;&gt;bcprov</title>
<path fill="none" stroke="green" d="M240.013,-333.33C248.015,-340.627 258.173,-348.186 269,-352 320.98,-370.311 464.745,-369.513 517,-352 524.959,-349.332 532.659,-344.805 539.505,-339.814"/>
<polygon fill="green" stroke="green" points="542.005,-342.299 547.675,-333.349 537.661,-336.809 542.005,-342.299"/>
</g>
<!-- bcprov&#45;&gt;org_apache_servicemix_bundles_junit -->
<g id="edge47" class="edge"><title>bcprov&#45;&gt;org_apache_servicemix_bundles_junit</title>
<path fill="none" stroke="#3182bd" d="M579.271,-296.937C586.076,-288.189 594.502,-277.354 602.069,-267.626"/>
<polygon fill="#3182bd" stroke="#3182bd" points="605.058,-269.483 608.435,-259.441 599.533,-265.185 605.058,-269.483"/>
</g>
<!-- jackson_mapper_asl&#45;&gt;jackson_core_asl -->
<g id="edge36" class="edge"><title>jackson_mapper_asl&#45;&gt;jackson_core_asl</title>
<path fill="none" stroke="green" d="M2600.55,-315C2603.16,-315 2605.76,-315 2608.37,-315"/>
<polygon fill="green" stroke="green" points="2608.42,-318.5 2618.42,-315 2608.42,-311.5 2608.42,-318.5"/>
</g>
<!-- org_apache_felix_eventadmin -->
<g id="node28" class="node"><title>org_apache_felix_eventadmin</title>
<polygon fill="#9ecae1" stroke="black" points="1637,-75 1637,-111 1777,-111 1777,-75 1637,-75"/>
<text text-anchor="middle" x="1707" y="-100.1" font-family="Arial" font-size="8.00">Apache Felix EventAdmin</text>
<polyline fill="none" stroke="black" points="1637,-93 1777,-93 "/>
<text text-anchor="middle" x="1707" y="-82.1" font-family="Arial" font-size="8.00">org.apache.felix.eventadmin(1.3.2)</text>
</g>
<!-- org_ops4j_pax_logging_pax_logging_api&#45;&gt;org_apache_felix_eventadmin -->
<g id="edge41" class="edge"><title>org_ops4j_pax_logging_pax_logging_api&#45;&gt;org_apache_felix_eventadmin</title>
<path fill="none" stroke="#3182bd" d="M1720.67,-296.737C1713.79,-258.664 1705.63,-167.231 1704.72,-121.301"/>
<polygon fill="#3182bd" stroke="#3182bd" points="1708.22,-121.157 1704.65,-111.183 1701.22,-121.208 1708.22,-121.157"/>
</g>
<!-- org_ops4j_pax_web_pax_web_jsp&#45;&gt;org_apache_geronimo_specs_geronimo_servlet_3_0_spec -->
<g id="edge44" class="edge"><title>org_ops4j_pax_web_pax_web_jsp&#45;&gt;org_apache_geronimo_specs_geronimo_servlet_3_0_spec</title>
<path fill="none" stroke="#3182bd" d="M986.589,-333.089C1004.53,-340.535 1026.42,-348.279 1047,-352 1113.04,-363.938 1131.5,-361.013 1198,-352 1221.85,-348.767 1247.46,-342.437 1269.83,-335.914"/>
<polygon fill="#3182bd" stroke="#3182bd" points="1270.96,-339.231 1279.54,-333.014 1268.95,-332.524 1270.96,-339.231"/>
</g>
<!-- org_ops4j_pax_web_pax_web_jsp&#45;&gt;org_ops4j_pax_logging_pax_logging_api -->
<g id="edge43" class="edge"><title>org_ops4j_pax_web_pax_web_jsp&#45;&gt;org_ops4j_pax_logging_pax_logging_api</title>
<path fill="none" stroke="#3182bd" d="M986.589,-333.089C1004.53,-340.535 1026.42,-348.279 1047,-352 1172.52,-374.69 1495.27,-373.504 1621,-352 1639.16,-348.895 1658.34,-342.974 1675.28,-336.765"/>
<polygon fill="#3182bd" stroke="#3182bd" points="1676.86,-339.91 1684.97,-333.094 1674.38,-333.365 1676.86,-339.91"/>
</g>
<!-- org_ops4j_pax_web_pax_web_api -->
<g id="node30" class="node"><title>org_ops4j_pax_web_pax_web_api</title>
<polygon fill="#9ecae1" stroke="black" points="1271,-223 1271,-259 1435,-259 1435,-223 1271,-223"/>
<text text-anchor="middle" x="1353" y="-248.1" font-family="Arial" font-size="8.00">OPS4J Pax Web &#45; API</text>
<polyline fill="none" stroke="black" points="1271,-241 1435,-241 "/>
<text text-anchor="middle" x="1353" y="-230.1" font-family="Arial" font-size="8.00">org.ops4j.pax.web.pax&#45;web&#45;api(3.0.0.M3)</text>
</g>
<!-- org_ops4j_pax_web_pax_web_jsp&#45;&gt;org_ops4j_pax_web_pax_web_api -->
<g id="edge45" class="edge"><title>org_ops4j_pax_web_pax_web_jsp&#45;&gt;org_ops4j_pax_web_pax_web_api</title>
<path fill="none" stroke="#3182bd" d="M1029.9,-297.521C1032.63,-297.003 1035.34,-296.495 1038,-296 1112.96,-282.082 1198.19,-267.549 1261.08,-257.07"/>
<polygon fill="#3182bd" stroke="#3182bd" points="1261.69,-260.517 1270.98,-255.424 1260.54,-253.612 1261.69,-260.517"/>
</g>
<!-- org_ops4j_pax_web_pax_web_runtime -->
<g id="node31" class="node"><title>org_ops4j_pax_web_pax_web_runtime</title>
<polygon fill="#9ecae1" stroke="black" points="1363,-149 1363,-185 1543,-185 1543,-149 1363,-149"/>
<text text-anchor="middle" x="1453" y="-174.1" font-family="Arial" font-size="8.00">OPS4J Pax Web &#45; Runtime</text>
<polyline fill="none" stroke="black" points="1363,-167 1543,-167 "/>
<text text-anchor="middle" x="1453" y="-156.1" font-family="Arial" font-size="8.00">org.ops4j.pax.web.pax&#45;web&#45;runtime(3.0.0.M3)</text>
</g>
<!-- org_ops4j_pax_web_pax_web_jsp&#45;&gt;org_ops4j_pax_web_pax_web_runtime -->
<g id="edge46" class="edge"><title>org_ops4j_pax_web_pax_web_jsp&#45;&gt;org_ops4j_pax_web_pax_web_runtime</title>
<path fill="none" stroke="#3182bd" d="M998.914,-296.964C1059.47,-278.372 1163.34,-247.809 1253,-222 1292.82,-210.537 1337.38,-197.928 1374.37,-187.779"/>
<polygon fill="#3182bd" stroke="#3182bd" points="1375.37,-191.133 1384.09,-185.119 1373.52,-184.381 1375.37,-191.133"/>
</g>
<!-- org_springframework_beans&#45;&gt;org_springframework_core -->
<g id="edge39" class="edge"><title>org_springframework_beans&#45;&gt;org_springframework_core</title>
<path fill="none" stroke="green" d="M129.439,-333.095C148.676,-340.543 172.092,-348.286 194,-352 253.594,-362.102 270.452,-362.371 330,-352 347.839,-348.893 366.669,-342.972 383.281,-336.763"/>
<polygon fill="green" stroke="green" points="384.715,-339.961 392.782,-333.093 382.192,-333.431 384.715,-339.961"/>
</g>
<!-- org_springframework_beans&#45;&gt;org_ops4j_pax_logging_pax_logging_api -->
<g id="edge40" class="edge"><title>org_springframework_beans&#45;&gt;org_ops4j_pax_logging_pax_logging_api</title>
<path fill="none" stroke="green" d="M129.439,-333.095C148.676,-340.543 172.092,-348.286 194,-352 272.163,-365.25 1542.86,-365.365 1621,-352 1639.16,-348.895 1658.34,-342.974 1675.28,-336.765"/>
<polygon fill="green" stroke="green" points="1676.86,-339.91 1684.97,-333.094 1674.38,-333.365 1676.86,-339.91"/>
</g>
<!-- org_springframework_beans&#45;&gt;org_ops4j_pax_web_pax_web_jsp -->
<g id="edge37" class="edge"><title>org_springframework_beans&#45;&gt;org_ops4j_pax_web_pax_web_jsp</title>
<path fill="none" stroke="green" d="M129.439,-333.095C148.676,-340.543 172.092,-348.286 194,-352 265.645,-364.145 776.471,-364.809 848,-352 865.202,-348.92 883.316,-343.079 899.331,-336.934"/>
<polygon fill="green" stroke="green" points="901.003,-340.035 909.003,-333.09 898.418,-333.53 901.003,-340.035"/>
</g>
<!-- org_apache_servicemix_bundles_cglib -->
<g id="node27" class="node"><title>org_apache_servicemix_bundles_cglib</title>
<polygon fill="#3182bd" stroke="black" points="0.5,-223 0.5,-259 175.5,-259 175.5,-223 0.5,-223"/>
<text text-anchor="middle" x="88" y="-248.1" font-family="Arial" font-size="8.00">Apache ServiceMix :: Bundles :: cglib</text>
<polyline fill="none" stroke="black" points="0.5,-241 175.5,-241 "/>
<text text-anchor="middle" x="88" y="-230.1" font-family="Arial" font-size="8.00">org.apache.servicemix.bundles.cglib(2.2.2.1)</text>
</g>
<!-- org_springframework_beans&#45;&gt;org_apache_servicemix_bundles_cglib -->
<g id="edge38" class="edge"><title>org_springframework_beans&#45;&gt;org_apache_servicemix_bundles_cglib</title>
<path fill="none" stroke="green" d="M88,-296.937C88,-288.807 88,-278.876 88,-269.705"/>
<polygon fill="green" stroke="green" points="91.5001,-269.441 88,-259.441 84.5001,-269.441 91.5001,-269.441"/>
</g>
<!-- org_apache_servicemix_bundles_xmlresolver -->
<g id="node29" class="node"><title>org_apache_servicemix_bundles_xmlresolver</title>
<polygon fill="#9ecae1" stroke="black" points="2229,-149 2229,-185 2429,-185 2429,-149 2229,-149"/>
<text text-anchor="middle" x="2329" y="-174.1" font-family="Arial" font-size="8.00">Apache ServiceMix :: Bundles :: xmlresolver</text>
<polyline fill="none" stroke="black" points="2229,-167 2429,-167 "/>
<text text-anchor="middle" x="2329" y="-156.1" font-family="Arial" font-size="8.00">org.apache.servicemix.bundles.xmlresolver(1.2.0.5)</text>
</g>
<!-- org_apache_servicemix_bundles_xerces&#45;&gt;org_apache_servicemix_bundles_xmlresolver -->
<g id="edge42" class="edge"><title>org_apache_servicemix_bundles_xerces&#45;&gt;org_apache_servicemix_bundles_xmlresolver</title>
<path fill="none" stroke="#3182bd" d="M2329,-222.937C2329,-214.807 2329,-204.876 2329,-195.705"/>
<polygon fill="#3182bd" stroke="#3182bd" points="2332.5,-195.441 2329,-185.441 2325.5,-195.441 2332.5,-195.441"/>
</g>
<!-- org_apache_felix_eventadmin&#45;&gt;org_ops4j_pax_logging_pax_logging_api -->
<g id="edge48" class="edge"><title>org_apache_felix_eventadmin&#45;&gt;org_ops4j_pax_logging_pax_logging_api</title>
<path fill="none" stroke="#9ecae1" d="M1712.32,-111.183C1719.2,-149.181 1727.36,-240.609 1728.28,-286.602"/>
<polygon fill="#9ecae1" stroke="#9ecae1" points="1724.78,-286.763 1728.35,-296.737 1731.78,-286.711 1724.78,-286.763"/>
</g>
<!-- org_apache_felix_configadmin -->
<g id="node32" class="node"><title>org_apache_felix_configadmin</title>
<polygon fill="#deebf7" stroke="black" points="1526,-1 1526,-37 1692,-37 1692,-1 1526,-1"/>
<text text-anchor="middle" x="1609" y="-26.1" font-family="Arial" font-size="8.00">Apache Felix Configuration Admin Service</text>
<polyline fill="none" stroke="black" points="1526,-19 1692,-19 "/>
<text text-anchor="middle" x="1609" y="-8.1" font-family="Arial" font-size="8.00">org.apache.felix.configadmin(1.6.0)</text>
</g>
<!-- org_apache_felix_eventadmin&#45;&gt;org_apache_felix_configadmin -->
<g id="edge49" class="edge"><title>org_apache_felix_eventadmin&#45;&gt;org_apache_felix_configadmin</title>
<path fill="none" stroke="#9ecae1" d="M1683.78,-74.937C1670.93,-65.5012 1654.79,-53.6389 1640.79,-43.3541"/>
<polygon fill="#9ecae1" stroke="#9ecae1" points="1642.53,-40.2902 1632.4,-37.19 1638.38,-45.9314 1642.53,-40.2902"/>
</g>
<!-- org_apache_felix_metatype -->
<g id="node33" class="node"><title>org_apache_felix_metatype</title>
<polygon fill="#deebf7" stroke="black" points="1724.5,-1 1724.5,-37 1855.5,-37 1855.5,-1 1724.5,-1"/>
<text text-anchor="middle" x="1790" y="-26.1" font-family="Arial" font-size="8.00">Apache Felix Metatype Service</text>
<polyline fill="none" stroke="black" points="1724.5,-19 1855.5,-19 "/>
<text text-anchor="middle" x="1790" y="-8.1" font-family="Arial" font-size="8.00">org.apache.felix.metatype(1.0.6)</text>
</g>
<!-- org_apache_felix_eventadmin&#45;&gt;org_apache_felix_metatype -->
<g id="edge50" class="edge"><title>org_apache_felix_eventadmin&#45;&gt;org_apache_felix_metatype</title>
<path fill="none" stroke="#9ecae1" d="M1726.67,-74.937C1737.34,-65.6792 1750.71,-54.0857 1762.4,-43.9379"/>
<polygon fill="#9ecae1" stroke="#9ecae1" points="1764.92,-46.3867 1770.18,-37.19 1760.34,-41.099 1764.92,-46.3867"/>
</g>
<!-- org_ops4j_pax_web_pax_web_api&#45;&gt;org_apache_geronimo_specs_geronimo_servlet_3_0_spec -->
<g id="edge52" class="edge"><title>org_ops4j_pax_web_pax_web_api&#45;&gt;org_apache_geronimo_specs_geronimo_servlet_3_0_spec</title>
<path fill="none" stroke="#9ecae1" d="M1347.91,-259.441C1345.47,-267.803 1342.5,-278.005 1339.78,-287.315"/>
<polygon fill="#9ecae1" stroke="#9ecae1" points="1336.42,-286.357 1336.98,-296.937 1343.14,-288.317 1336.42,-286.357"/>
</g>
<!-- org_ops4j_pax_web_pax_web_api&#45;&gt;org_ops4j_pax_logging_pax_logging_api -->
<g id="edge51" class="edge"><title>org_ops4j_pax_web_pax_web_api&#45;&gt;org_ops4j_pax_logging_pax_logging_api</title>
<path fill="none" stroke="#9ecae1" d="M1435.2,-257.868C1492.57,-268.94 1569.33,-283.758 1629.59,-295.389"/>
<polygon fill="#9ecae1" stroke="#9ecae1" points="1629.01,-298.842 1639.49,-297.301 1630.33,-291.969 1629.01,-298.842"/>
</g>
<!-- org_ops4j_pax_web_pax_web_api&#45;&gt;org_ops4j_pax_web_pax_web_runtime -->
<g id="edge53" class="edge"><title>org_ops4j_pax_web_pax_web_api&#45;&gt;org_ops4j_pax_web_pax_web_runtime</title>
<path fill="none" stroke="#9ecae1" d="M1370.86,-222.937C1383.08,-213.412 1399.57,-201.415 1414.62,-191.063"/>
<polygon fill="#9ecae1" stroke="#9ecae1" points="1416.96,-193.703 1423.27,-185.19 1413.03,-187.911 1416.96,-193.703"/>
</g>
<!-- org_ops4j_pax_web_pax_web_runtime&#45;&gt;org_apache_geronimo_specs_geronimo_servlet_3_0_spec -->
<g id="edge56" class="edge"><title>org_ops4j_pax_web_pax_web_runtime&#45;&gt;org_apache_geronimo_specs_geronimo_servlet_3_0_spec</title>
<path fill="none" stroke="#deebf7" d="M1456.01,-185.303C1458.49,-205.181 1459.43,-237.894 1444,-260 1434.08,-274.204 1419.38,-284.809 1403.86,-292.676"/>
<polygon fill="#deebf7" stroke="#deebf7" points="1402.22,-289.578 1394.66,-296.998 1405.2,-295.913 1402.22,-289.578"/>
</g>
<!-- org_ops4j_pax_web_pax_web_runtime&#45;&gt;org_ops4j_pax_logging_pax_logging_api -->
<g id="edge61" class="edge"><title>org_ops4j_pax_web_pax_web_runtime&#45;&gt;org_ops4j_pax_logging_pax_logging_api</title>
<path fill="none" stroke="#deebf7" d="M1468.26,-185.317C1487.2,-205.826 1521.37,-239.753 1557,-260 1582.63,-274.566 1612.72,-285.789 1640.35,-294.132"/>
<polygon fill="#deebf7" stroke="#deebf7" points="1639.43,-297.509 1650.01,-296.964 1641.4,-290.792 1639.43,-297.509"/>
</g>
<!-- org_ops4j_pax_web_pax_web_runtime&#45;&gt;org_ops4j_pax_web_pax_web_jsp -->
<g id="edge62" class="edge"><title>org_ops4j_pax_web_pax_web_runtime&#45;&gt;org_ops4j_pax_web_pax_web_jsp</title>
<path fill="none" stroke="#deebf7" d="M1399.68,-185.119C1363.38,-195.665 1314.38,-209.513 1271,-222 1185.72,-246.549 1087.58,-275.399 1022,-294.157"/>
<polygon fill="#deebf7" stroke="#deebf7" points="1020.82,-290.854 1012.16,-296.964 1022.74,-297.586 1020.82,-290.854"/>
</g>
<!-- org_ops4j_pax_web_pax_web_runtime&#45;&gt;org_apache_felix_eventadmin -->
<g id="edge58" class="edge"><title>org_ops4j_pax_web_pax_web_runtime&#45;&gt;org_apache_felix_eventadmin</title>
<path fill="none" stroke="#deebf7" d="M1513.19,-148.937C1550.39,-138.395 1598.26,-124.823 1637.12,-113.807"/>
<polygon fill="#deebf7" stroke="#deebf7" points="1638.13,-117.16 1646.8,-111.065 1636.22,-110.425 1638.13,-117.16"/>
</g>
<!-- org_ops4j_pax_web_pax_web_runtime&#45;&gt;org_ops4j_pax_web_pax_web_api -->
<g id="edge59" class="edge"><title>org_ops4j_pax_web_pax_web_runtime&#45;&gt;org_ops4j_pax_web_pax_web_api</title>
<path fill="none" stroke="#deebf7" d="M1434.98,-185.19C1422.72,-194.737 1406.22,-206.738 1391.18,-217.074"/>
<polygon fill="#deebf7" stroke="#deebf7" points="1388.85,-214.426 1382.54,-222.937 1392.78,-220.218 1388.85,-214.426"/>
</g>
<!-- org_ops4j_pax_web_pax_web_runtime&#45;&gt;org_apache_felix_configadmin -->
<g id="edge57" class="edge"><title>org_ops4j_pax_web_pax_web_runtime&#45;&gt;org_apache_felix_configadmin</title>
<path fill="none" stroke="#deebf7" d="M1489.04,-148.78C1506.48,-139.394 1527.05,-126.692 1543,-112 1563.97,-92.683 1582.36,-65.7255 1594.37,-45.9844"/>
<polygon fill="#deebf7" stroke="#deebf7" points="1597.48,-47.5932 1599.58,-37.2072 1591.46,-44.0209 1597.48,-47.5932"/>
</g>
<!-- org_ops4j_pax_web_pax_web_spi -->
<g id="node34" class="node"><title>org_ops4j_pax_web_pax_web_spi</title>
<polygon fill="#bdbdbd" stroke="black" points="1371.5,-75 1371.5,-111 1534.5,-111 1534.5,-75 1371.5,-75"/>
<text text-anchor="middle" x="1453" y="-100.1" font-family="Arial" font-size="8.00">OPS4J Pax Web &#45; Service SPI</text>
<polyline fill="none" stroke="black" points="1371.5,-93 1534.5,-93 "/>
<text text-anchor="middle" x="1453" y="-82.1" font-family="Arial" font-size="8.00">org.ops4j.pax.web.pax&#45;web&#45;spi(3.0.0.M3)</text>
</g>
<!-- org_ops4j_pax_web_pax_web_runtime&#45;&gt;org_ops4j_pax_web_pax_web_spi -->
<g id="edge60" class="edge"><title>org_ops4j_pax_web_pax_web_runtime&#45;&gt;org_ops4j_pax_web_pax_web_spi</title>
<path fill="none" stroke="#deebf7" d="M1447.16,-148.937C1446.3,-140.807 1446.05,-130.876 1446.41,-121.705"/>
<polygon fill="#deebf7" stroke="#deebf7" points="1449.92,-121.658 1447.12,-111.441 1442.94,-121.176 1449.92,-121.658"/>
</g>
<!-- org_apache_felix_configadmin&#45;&gt;org_ops4j_pax_logging_pax_logging_api -->
<g id="edge54" class="edge"><title>org_apache_felix_configadmin&#45;&gt;org_ops4j_pax_logging_pax_logging_api</title>
<path fill="none" stroke="#deebf7" d="M1611.26,-37.2936C1614.02,-56.0415 1619.39,-86.6759 1628,-112 1650.44,-178.002 1689.35,-250.372 1710.77,-288"/>
<polygon fill="#deebf7" stroke="#deebf7" points="1707.81,-289.863 1715.82,-296.792 1713.88,-286.377 1707.81,-289.863"/>
</g>
<!-- org_apache_felix_metatype&#45;&gt;org_ops4j_pax_logging_pax_logging_api -->
<g id="edge55" class="edge"><title>org_apache_felix_metatype&#45;&gt;org_ops4j_pax_logging_pax_logging_api</title>
<path fill="none" stroke="#deebf7" d="M1790.47,-37.0816C1790.7,-55.6482 1790.26,-86.1288 1786,-112 1774.88,-179.589 1762.84,-194.439 1743,-260 1740.34,-268.79 1737.36,-278.357 1734.64,-286.963"/>
<polygon fill="#deebf7" stroke="#deebf7" points="1731.3,-285.93 1731.61,-296.52 1737.97,-288.046 1731.3,-285.93"/>
</g>
<!-- org_ops4j_pax_web_pax_web_spi&#45;&gt;org_apache_geronimo_specs_geronimo_servlet_3_0_spec -->
<g id="edge64" class="edge"><title>org_ops4j_pax_web_pax_web_spi&#45;&gt;org_apache_geronimo_specs_geronimo_servlet_3_0_spec</title>
<path fill="none" stroke="#bdbdbd" d="M1400.13,-111.002C1352.69,-129.608 1286.85,-164.683 1262,-222 1255.28,-237.496 1254.55,-244.843 1262,-260 1268.1,-272.404 1278.57,-282.762 1289.58,-290.98"/>
<polygon fill="#bdbdbd" stroke="#bdbdbd" points="1287.83,-294.026 1298.04,-296.846 1291.81,-288.273 1287.83,-294.026"/>
</g>
<!-- org_ops4j_pax_web_pax_web_spi&#45;&gt;org_ops4j_pax_logging_pax_logging_api -->
<g id="edge63" class="edge"><title>org_ops4j_pax_web_pax_web_spi&#45;&gt;org_ops4j_pax_logging_pax_logging_api</title>
<path fill="none" stroke="#bdbdbd" d="M1499.54,-111.084C1517.91,-119.769 1537.94,-131.943 1552,-148 1587.12,-188.121 1557.76,-221.839 1595,-260 1609.11,-274.459 1627.65,-285.198 1646.32,-293.116"/>
<polygon fill="#bdbdbd" stroke="#bdbdbd" points="1645.19,-296.434 1655.78,-296.892 1647.79,-289.933 1645.19,-296.434"/>
</g>
<!-- org_ops4j_pax_web_pax_web_spi&#45;&gt;org_ops4j_pax_web_pax_web_api -->
<g id="edge65" class="edge"><title>org_ops4j_pax_web_pax_web_spi&#45;&gt;org_ops4j_pax_web_pax_web_api</title>
<path fill="none" stroke="#bdbdbd" d="M1398.75,-111.024C1381.4,-119.309 1364.09,-131.219 1354,-148 1342.41,-167.291 1343.27,-193.218 1346.39,-212.631"/>
<polygon fill="#bdbdbd" stroke="#bdbdbd" points="1342.99,-213.49 1348.3,-222.663 1349.87,-212.186 1342.99,-213.49"/>
</g>
<!-- org_ops4j_pax_web_pax_web_spi&#45;&gt;org_ops4j_pax_web_pax_web_runtime -->
<g id="edge66" class="edge"><title>org_ops4j_pax_web_pax_web_spi&#45;&gt;org_ops4j_pax_web_pax_web_runtime</title>
<path fill="none" stroke="#bdbdbd" d="M1458.88,-111.441C1459.72,-119.625 1459.95,-129.572 1459.57,-138.719"/>
<polygon fill="#bdbdbd" stroke="#bdbdbd" points="1456.06,-138.713 1458.84,-148.937 1463.04,-139.212 1456.06,-138.713"/>
</g>
</g>
</svg>
